{"title":"For a Few Dollars More(1965)MPEG-4[DaScubaDude]","uid":15891829,"size":1335536022,"categoryP":"video","categoryS":"movies","magnet":"?xt=urn:btih:b47d5e2747731eb3bd709186881ddb80d06dd665&amp;dn=For+a+Few+Dollars+More%281965%29MPEG-4%5BDaScubaDude%5D&amp;tr=udp%3A%2F%2Ftracker.leechers-paradise.org%3A6969&amp;tr=udp%3A%2F%2Fzer0day.ch%3A1337&amp;tr=udp%3A%2F%2Fopen.demonii.com%3A1337&amp;tr=udp%3A%2F%2Ftracker.coppersurfer.tk%3A6969&amp;tr=udp%3A%2F%2Fexodus.desync.com%3A6969","seeders":27,"leechers":7,"uploader":"dascuba","files":1,"time":1474762279,"description":"For a Few Dollars More (1965)\r\nPer qualche dollaro in più (original title)\r\nApproved | 2h 12min | Western | 10 May 1967 (USA)\r\nTwo bounty hunters with the same intentions team up to track down a Western outlaw.\r\nDirector: Sergio Leone\r\nWriters: Sergio Leone (scenario), Fulvio Morsella (scenario) | \r\nStars: Clint Eastwood, Lee Van Cleef, Gian Maria Volontè |\r\n\r\nGeneral\r\nComplete name                            : For a Few Dollars MoreFEW_DOLLARS_Title1.mp4\r\nFormat                                   : MPEG-4\r\nFormat profile                           : Base Media\r\nCodec ID                                 : isom (isom/iso2/avc1/mp41)\r\nFile size                                : 1.24 GiB\r\nDuration                                 : 2h 11mn\r\nOverall bit rate                         : 1 352 Kbps\r\nMovie name                               : FEW_DOLLARS\r\nGenre                                    : Western\r\nWriting application                      : Lavf54.6.100\r\n\r\nVideo\r\nID                                       : 1\r\nFormat                                   : AVC\r\nFormat/Info                              : Advanced Video Codec\r\nFormat profile                           :   \r\nFormat settings, CABAC                   : No\r\nFormat settings, ReFrames                : 6 frames\r\nCodec ID                                 : avc1\r\nCodec ID/Info                            : Advanced Video Coding\r\nDuration                                 : 2h 11mn\r\nBit rate                                 : 1 206 Kbps\r\nWidth                                    : 720 pixels\r\nHeight                                   : 540 pixels\r\nDisplay aspect ratio                     : 4:3\r\nFrame rate mode                          : Constant\r\nFrame rate                               : 29.970 (30000/1001) fps\r\nColor space                              : YUV\r\nChroma subsampling                       : 4:2:0\r\nBit depth                                : 8 bits\r\nScan type                                : Progressive\r\nBits/(Pixel*Frame)                       : 0.103\r\nStream size                              : 1.11 GiB (89%)\r\n\r\nAudio\r\nID                                       : 2\r\nFormat                                   : AAC\r\nFormat/Info                              : Advanced Audio Codec\r\nFormat profile                           : LC\r\nCodec ID                                 : 40\r\nDuration                                 : 2h 11mn\r\nBit rate mode                            : Constant\r\nBit rate                                 : 140 Kbps\r\nChannel(s)                               : 2 channels\r\nChannel positions                        : Front: L R\r\nSampling rate                            : 44.1 KHz\r\nFrame rate                               : 43.066 fps (1024 spf)\r\nCompression mode                         : Lossy\r\nStream size                              : 132 MiB (10%)\r\nDefault                                  : Yes\r\nAlternate group                          : 1","torrent":{"xt":"urn:btih:b47d5e2747731eb3bd709186881ddb80d06dd665","amp;dn":"For+a+Few+Dollars+More%281965%29MPEG-4%5BDaScubaDude%5D","amp;tr":["udp%3A%2F%2Ftracker.leechers-paradise.org%3A6969","udp%3A%2F%2Fzer0day.ch%3A1337","udp%3A%2F%2Fopen.demonii.com%3A1337","udp%3A%2F%2Ftracker.coppersurfer.tk%3A6969","udp%3A%2F%2Fexodus.desync.com%3A6969"],"infoHash":"b47d5e2747731eb3bd709186881ddb80d06dd665","infoHashBuffer":{"type":"Buffer","data":[180,125,94,39,71,115,30,179,189,112,145,134,136,29,219,128,208,109,214,101]},"announce":[],"urlList":[]}}